<?xml version="1.0" encoding="iso-8859-1"?>
<!-- Uploaded to: SVG Repo, www.svgrepo.com, Generator: SVG Repo Mixer Tools -->
<svg height="800px" width="800px" version="1.1" id="Layer_1" xmlns="http://www.w3.org/2000/svg" xmlns:xlink="http://www.w3.org/1999/xlink" 
	 viewBox="0 0 512 512" xml:space="preserve">
<g>
	<path style="fill:#FF7D46;" d="M332.961,377.13v-60.303h-40.789c-2.702-10.147-6.732-19.757-11.895-28.632l28.866-28.867
		l-42.64-42.64l-28.866,28.867c-8.874-5.164-18.485-9.193-28.632-11.894v-40.789h-60.303v40.789
		c-10.147,2.702-19.757,6.732-28.632,11.894l-28.866-28.867l-42.64,42.64l28.866,28.867c-5.164,8.874-9.192,18.485-11.894,28.632
		H24.747v60.303h40.788c2.702,10.147,6.732,19.757,11.894,28.632l-28.866,28.867l42.64,42.64l28.866-28.867
		c8.874,5.164,18.485,9.193,28.632,11.895v40.788h60.303v-40.788c10.147-2.702,19.757-6.732,28.632-11.895l28.866,28.867
		l42.64-42.64l-28.866-28.867c5.164-8.874,9.192-18.485,11.895-28.632L332.961,377.13L332.961,377.13z M178.853,410.632
		c-35.154,0-63.653-28.499-63.653-63.653s28.499-63.653,63.653-63.653s63.653,28.499,63.653,63.653S214.008,410.632,178.853,410.632
		z"/>
	<path style="fill:#FF7D46;" d="M470.031,106.415c0-6.092-0.738-12.012-2.091-17.697l19.311-11.149l-21.829-37.808l-19.35,11.172
		c-8.577-8.11-19.016-14.26-30.613-17.724V10.914h-43.658v22.295c-11.595,3.464-22.036,9.613-30.613,17.724l-19.35-11.172
		L300.01,77.57l19.311,11.149c-1.353,5.684-2.091,11.604-2.091,17.697s0.738,12.012,2.091,17.697l-19.311,11.149l21.829,37.809
		l19.35-11.172c8.577,8.11,19.016,14.26,30.613,17.724v22.295h43.658v-22.295c11.595-3.464,22.036-9.613,30.613-17.724l19.35,11.172
		l21.829-37.809l-19.311-11.149C469.293,118.428,470.031,112.508,470.031,106.415z M393.63,139.158
		c-18.084,0-32.743-14.659-32.743-32.743c0-18.083,14.659-32.743,32.743-32.743c18.084,0,32.743,14.66,32.743,32.743
		C426.374,124.499,411.715,139.158,393.63,139.158z"/>
</g>
<g>
	<path style="fill:#231F20;" d="M178.853,272.412c-41.117,0-74.567,33.45-74.567,74.567s33.45,74.567,74.567,74.567
		s74.567-33.45,74.567-74.567S219.97,272.412,178.853,272.412z M178.853,399.717c-29.08,0-52.738-23.658-52.738-52.738
		s23.658-52.738,52.738-52.738s52.738,23.658,52.738,52.738C231.591,376.059,207.933,399.717,178.853,399.717z"/>
	<path style="fill:#231F20;" d="M332.961,305.914h-32.693c-1.825-5.382-4.009-10.64-6.538-15.736l23.131-23.131
		c4.262-4.262,4.262-11.173,0-15.435l-42.64-42.64c-4.262-4.262-11.173-4.262-15.436,0l-23.13,23.131
		c-5.096-2.528-10.353-4.713-15.735-6.537v-32.693c0-6.028-4.886-10.914-10.914-10.914h-60.302c-6.028,0-10.914,4.886-10.914,10.914
		v32.693c-5.382,1.824-10.64,4.009-15.736,6.537l-23.13-23.13c-2.046-2.046-4.823-3.197-7.718-3.197s-5.671,1.15-7.718,3.197
		l-42.64,42.64c-2.046,2.046-3.197,4.823-3.197,7.718c0,2.894,1.15,5.671,3.197,7.718l23.131,23.13
		c-2.528,5.096-4.713,10.354-6.537,15.736H24.747c-6.028,0-10.914,4.886-10.914,10.914v60.302c0,6.028,4.886,10.914,10.914,10.914
		H57.44c1.824,5.382,4.009,10.64,6.537,15.736l-23.13,23.13c-2.046,2.046-3.197,4.823-3.197,7.718c0,2.895,1.15,5.671,3.197,7.718
		l42.64,42.64c2.046,2.046,4.823,3.197,7.718,3.197s5.671-1.15,7.718-3.197l23.13-23.13c5.096,2.528,10.354,4.713,15.736,6.537
		v32.693c0,6.028,4.886,10.914,10.914,10.914h60.302c6.028,0,10.914-4.886,10.914-10.914v-32.693
		c5.382-1.824,10.64-4.009,15.735-6.537l23.13,23.131c2.046,2.046,4.823,3.197,7.718,3.197c2.894,0,5.671-1.15,7.718-3.197
		l42.64-42.64c4.262-4.262,4.262-11.173,0-15.435l-23.131-23.13c2.528-5.095,4.713-10.354,6.538-15.735h32.693
		c6.028,0,10.914-4.886,10.914-10.914V316.83C343.875,310.8,338.989,305.914,332.961,305.914z M322.046,366.216h-29.875
		c-4.946,0-9.274,3.326-10.547,8.105c-2.419,9.08-6.047,17.811-10.782,25.952c-2.491,4.282-1.787,9.704,1.716,13.206l21.149,21.149
		l-27.205,27.205l-21.149-21.15c-3.504-3.501-8.926-4.206-13.207-1.716c-8.141,4.737-16.871,8.365-25.95,10.782
		c-4.779,1.273-8.106,5.6-8.106,10.547v29.875h-38.473v-29.875c0-4.946-3.327-9.274-8.106-10.547
		c-9.08-2.418-17.81-6.045-25.951-10.782c-4.284-2.491-9.705-1.787-13.207,1.717l-21.149,21.149l-27.205-27.205l21.149-21.149
		c3.502-3.502,4.207-8.926,1.717-13.208c-4.737-8.14-8.365-16.871-10.782-25.951c-1.273-4.779-5.6-8.106-10.547-8.106H35.662
		v-38.473h29.875c4.946,0,9.274-3.326,10.547-8.106c2.418-9.08,6.045-17.81,10.782-25.951c2.491-4.282,1.787-9.704-1.716-13.208
		L64,259.328l27.205-27.205l21.149,21.149c3.502,3.502,8.925,4.207,13.207,1.717c8.14-4.737,16.871-8.365,25.951-10.782
		c4.779-1.273,8.106-5.6,8.106-10.547v-29.875h38.473v29.875c0,4.946,3.326,9.274,8.106,10.547
		c9.079,2.418,17.81,6.045,25.95,10.782c4.283,2.491,9.704,1.787,13.207-1.716l21.149-21.15l27.205,27.205l-21.149,21.15
		c-3.502,3.502-4.206,8.925-1.716,13.206c4.736,8.141,8.364,16.873,10.782,25.952c1.273,4.779,5.6,8.105,10.547,8.105h29.875v38.474
		H322.046z"/>
	<path style="fill:#231F20;" d="M393.63,62.758c-24.073,0-43.658,19.585-43.658,43.658s19.585,43.658,43.658,43.658
		s43.658-19.585,43.658-43.658S417.703,62.758,393.63,62.758z M393.63,128.244c-12.036,0-21.829-9.792-21.829-21.829
		s9.792-21.829,21.829-21.829c12.036,0,21.829,9.792,21.829,21.829S405.667,128.244,393.63,128.244z"/>
	<path style="fill:#231F20;" d="M492.708,125.81l-12.616-7.284c0.568-4.024,0.854-8.073,0.854-12.111
		c0-4.037-0.286-8.086-0.854-12.11l12.616-7.284c5.22-3.013,7.009-9.689,3.995-14.909l-21.829-37.808
		c-3.013-5.22-9.69-7.009-14.909-3.995l-12.66,7.308c-6.388-4.986-13.456-9.08-20.932-12.123V10.914
		C426.374,4.886,421.487,0,415.459,0h-43.658c-6.028,0-10.914,4.886-10.914,10.914v14.581c-7.475,3.043-14.543,7.137-20.932,12.123
		l-12.66-7.308c-5.221-3.016-11.896-1.226-14.909,3.995l-21.829,37.808c-3.015,5.22-1.226,11.896,3.995,14.909l12.616,7.284
		c-0.568,4.023-0.854,8.073-0.854,12.109c0,4.036,0.286,8.086,0.854,12.111l-12.616,7.284c-5.22,3.013-7.009,9.689-3.995,14.909
		l21.829,37.809c1.447,2.507,3.831,4.336,6.627,5.085c2.797,0.749,5.776,0.357,8.282-1.09l12.66-7.309
		c6.388,4.986,13.456,9.08,20.932,12.123v14.581c0,6.028,4.886,10.914,10.914,10.914h43.658c6.028,0,10.914-4.886,10.914-10.914
		v-14.581c7.475-3.043,14.543-7.137,20.932-12.123l12.66,7.309c2.507,1.447,5.484,1.84,8.282,1.09
		c2.796-0.75,5.18-2.578,6.627-5.085l21.829-37.808C499.717,135.499,497.928,128.824,492.708,125.81z M457.322,91.247
		c1.191,4.999,1.794,10.102,1.794,15.168c0,5.065-0.604,10.169-1.794,15.169c-1.118,4.695,0.98,9.568,5.16,11.981l9.859,5.692
		l-10.914,18.905l-9.898-5.715c-4.181-2.414-9.45-1.794-12.956,1.523c-7.439,7.036-16.512,12.291-26.237,15.196
		c-4.622,1.381-7.791,5.633-7.791,10.458v11.378h-21.829v-11.38c0-4.824-3.167-9.076-7.791-10.458
		c-9.725-2.905-18.798-8.16-26.237-15.196c-3.507-3.317-8.777-3.937-12.956-1.523l-9.898,5.715l-10.914-18.905l9.859-5.692
		c4.18-2.413,6.278-7.285,5.16-11.981c-1.191-5-1.794-10.103-1.794-15.169c0-5.065,0.604-10.169,1.794-15.168
		c1.118-4.695-0.98-9.568-5.16-11.981l-9.859-5.692l10.914-18.905l9.898,5.715c4.181,2.414,9.45,1.794,12.956-1.523
		c7.44-7.036,16.513-12.291,26.237-15.196c4.622-1.381,7.791-5.633,7.791-10.458V21.829h21.829v11.38
		c0,4.824,3.167,9.076,7.791,10.458c9.724,2.905,18.797,8.16,26.237,15.196c3.507,3.316,8.775,3.936,12.956,1.523l9.898-5.715
		l10.914,18.905l-9.859,5.692C458.303,81.68,456.204,86.552,457.322,91.247z"/>
	<path style="fill:#231F20;" d="M471.941,286.399h-6.508c-0.757-2.535-1.764-4.963-3.005-7.248l4.604-4.604
		c4.262-4.262,4.262-11.173,0-15.436c-4.262-4.261-11.173-4.261-15.436,0l-4.604,4.604c-2.285-1.24-4.714-2.247-7.248-3.005v-6.508
		c0-6.028-4.886-10.914-10.914-10.914s-10.914,4.886-10.914,10.914v6.508c-2.535,0.757-4.963,1.764-7.248,3.005l-4.604-4.604
		c-4.262-4.261-11.173-4.261-15.436,0c-4.262,4.262-4.262,11.173,0,15.436l4.604,4.604c-1.24,2.285-2.247,4.714-3.005,7.248h-6.508
		c-6.028,0-10.914,4.886-10.914,10.914s4.886,10.914,10.914,10.914h6.508c0.757,2.535,1.764,4.963,3.005,7.248l-4.604,4.604
		c-4.262,4.262-4.262,11.173,0,15.436c2.132,2.13,4.925,3.197,7.718,3.197c2.793,0,5.587-1.066,7.718-3.197l4.604-4.604
		c2.285,1.24,4.714,2.247,7.248,3.005v6.508c0,6.028,4.886,10.914,10.914,10.914s10.914-4.886,10.914-10.914v-6.508
		c2.535-0.757,4.963-1.764,7.248-3.005l4.604,4.604c2.132,2.13,4.925,3.197,7.718,3.197c2.793,0,5.587-1.066,7.718-3.197
		c4.262-4.262,4.262-11.173,0-15.436l-4.604-4.604c1.24-2.285,2.247-4.714,3.005-7.248h6.508c6.028,0,10.914-4.886,10.914-10.914
		S477.969,286.399,471.941,286.399z M412.458,297.313c0-9.027,7.344-16.372,16.372-16.372s16.372,7.344,16.372,16.372
		s-7.344,16.372-16.372,16.372S412.458,306.34,412.458,297.313z"/>
</g>
</svg>