<?xml version="1.0" encoding="UTF-8" standalone="no"?>
<!-- Created with Inkscape (http://www.inkscape.org/) -->

<svg
   width="208mm"
   height="220mm"
   viewBox="0 0 208 220"
   version="1.1"
   id="svg1771"
   inkscape:version="1.1 (c68e22c387, 2021-05-23)"
   sodipodi:docname="dibujo2.svg"
   xmlns:inkscape="http://www.inkscape.org/namespaces/inkscape"
   xmlns:sodipodi="http://sodipodi.sourceforge.net/DTD/sodipodi-0.dtd"
   xmlns="http://www.w3.org/2000/svg"
   xmlns:svg="http://www.w3.org/2000/svg">
  <sodipodi:namedview
     id="namedview1773"
     pagecolor="#ffffff"
     bordercolor="#666666"
     borderopacity="1.0"
     inkscape:pageshadow="2"
     inkscape:pageopacity="0.0"
     inkscape:pagecheckerboard="0"
     inkscape:document-units="mm"
     showgrid="false"
     width="209mm"
     inkscape:zoom="0.46324355"
     inkscape:cx="335.67656"
     inkscape:cy="387.48516"
     inkscape:window-width="1366"
     inkscape:window-height="705"
     inkscape:window-x="-8"
     inkscape:window-y="-8"
     inkscape:window-maximized="1"
     inkscape:current-layer="g2162" />
  <defs
     id="defs1768" />
  <g
     inkscape:label="Capa 1"
     inkscape:groupmode="layer"
     id="layer1">
    <g
       style="fill:#000000;stroke:#000000;stroke-width:0.84"
       id="g2162"
       transform="matrix(3.7797619,0,0,3.7797619,-1.3121798,4.3993584)">
      <g
         id="SVGRepo_bgCarrier"
         stroke-width="0" />
      <g
         id="SVGRepo_tracerCarrier"
         stroke-linecap="round"
         stroke-linejoin="round" />
      <g
         id="SVGRepo_iconCarrier-9"> <g
   id="g2132"> <g
   id="g2124"> <path
   style="fill:#545e73"
   d="M 49.455,8 V 8 C 48.724,3.538 38.281,0 25.5,0 12.719,0 2.276,3.538 1.545,8 V 8 H 1.5 V 8.5 20 20.5 21 32 32.5 33 45 h 0.045 c 0.731,4.461 11.175,8 23.955,8 12.78,0 23.224,-3.539 23.955,-8 H 49.5 V 33 32.5 32 21 20.5 20 8.5 8 Z"
   id="path2096" />
 <g
   id="g2104"> <path
   style="fill:#c0c0c0"
   d="M 25.5,41 C 12.245,41 1.5,37.194 1.5,32.5 V 45 h 0.045 c 0.731,4.461 11.175,8 23.955,8 12.78,0 23.224,-3.539 23.955,-8 H 49.5 V 32.5 c 0,4.694 -10.745,8.5 -24,8.5 z"
   id="path2098" />
 <path
   style="fill:#c0c0c0"
   d="m 1.5,32 v 0.5 c 0,-0.168 0.018,-0.334 0.045,-0.5 z"
   id="path2100" />
 <path
   style="fill:#c0c0c0"
   d="m 49.455,32 c 0.027,0.166 0.045,0.332 0.045,0.5 V 32 Z"
   id="path2102" />
 </g>
 <g
   id="g2112"> <path
   style="fill:#c0c0c0"
   d="M 25.5,29 C 12.245,29 1.5,25.194 1.5,20.5 V 33 h 0.045 c 0.731,4.461 11.175,8 23.955,8 12.78,0 23.224,-3.539 23.955,-8 H 49.5 V 20.5 c 0,4.694 -10.745,8.5 -24,8.5 z"
   id="path2106" />
 <path
   style="fill:#c0c0c0"
   d="m 1.5,20 v 0.5 c 0,-0.168 0.018,-0.334 0.045,-0.5 z"
   id="path2108" />
 <path
   style="fill:#c0c0c0"
   d="m 49.455,20 c 0.027,0.166 0.045,0.332 0.045,0.5 V 20 Z"
   id="path2110" />
 </g>
 <ellipse
   style="fill:#c0c0c0"
   cx="25.5"
   cy="8.5"
   rx="24"
   ry="8.5"
   id="ellipse2114" />
 <g
   id="g2122"> <path
   style="fill:#c0c0c0"
   d="M 25.5,17 C 12.245,17 1.5,13.194 1.5,8.5 V 21 h 0.045 c 0.731,4.461 11.175,8 23.955,8 12.78,0 23.224,-3.539 23.955,-8 H 49.5 V 8.5 c 0,4.694 -10.745,8.5 -24,8.5 z"
   id="path2116" />
 <path
   style="fill:#c0c0c0"
   d="M 1.5,8 V 8.5 C 1.5,8.332 1.518,8.166 1.545,8 Z"
   id="path2118" />
 <path
   style="fill:#c0c0c0"
   d="M 49.455,8 C 49.482,8.166 49.5,8.332 49.5,8.5 V 8 Z"
   id="path2120" />
 </g>
 </g>
 <g
   id="g2130"> <circle
   style="fill:#ff0000"
   cx="42.5"
   cy="44"
   r="12"
   id="circle2126" />
  </g>
 </g>
 </g>
    </g>
  </g>
</svg>
