<!DOCTYPE svg PUBLIC "-//W3C//DTD SVG 1.1//EN" "http://www.w3.org/Graphics/SVG/1.1/DTD/svg11.dtd">
<!-- Uploaded to: SVG Repo, www.svgrepo.com, Transformed by: SVG Repo Mixer Tools -->
<svg version="1.1" id="Layer_1" xmlns="http://www.w3.org/2000/svg" xmlns:xlink="http://www.w3.org/1999/xlink" viewBox="0 0 512.001 512.001" xml:space="preserve" width="800px" height="800px" fill="#000000">
<g id="SVGRepo_bgCarrier" stroke-width="0"/>
<g id="SVGRepo_tracerCarrier" stroke-linecap="round" stroke-linejoin="round"/>
<g id="SVGRepo_iconCarrier"> <g> <path style="fill:#ff8000;" d="M210.089,368H0.001c0,0-1.448-118.152,115.256-153.184l94.832,71.512l94.832-71.512 C421.601,249.848,420.177,368,420.177,368H210.089z"/> <path style="fill:#ff8000;" d="M210.089,0c47.392,0,85.816,38.424,85.816,85.816s-38.424,85.816-85.816,85.816 s-85.816-38.424-85.816-85.816l0,0C124.329,38.448,162.721,0.056,210.089,0z"/> </g> <circle style="fill:#E21B1B;" cx="396.001" cy="396" r="116"/> <g> <rect x="331.251" y="384.003" transform="matrix(0.7071 -0.7071 0.7071 0.7071 -164.0382 395.9832)" style="fill:#FFFFFF;" width="129.447" height="24"/> <rect x="383.975" y="331.274" transform="matrix(0.7071 -0.7071 0.7071 0.7071 -164.0342 395.9815)" style="fill:#FFFFFF;" width="24" height="129.447"/> </g> </g>
</svg>