<!DOCTYPE svg PUBLIC "-//W3C//DTD SVG 1.1//EN" "http://www.w3.org/Graphics/SVG/1.1/DTD/svg11.dtd">
<!-- Uploaded to: SVG Repo, www.svgrepo.com, Transformed by: SVG Repo Mixer Tools -->
<svg width="800px" height="800px" viewBox="0 0 18 18" xmlns="http://www.w3.org/2000/svg" fill="#ff0006" stroke="#ff0006">
<g id="SVGRepo_bgCarrier" stroke-width="0"/>
<g id="SVGRepo_tracerCarrier" stroke-linecap="round" stroke-linejoin="round"/>
<g id="SVGRepo_iconCarrier"> <path fill="#ff0006" d="M16,4H8V14h8a2.006,2.006,0,0,0,2-2V6A2.006,2.006,0,0,0,16,4Zm-.293,6.293a1,1,0,1,1-1.414,1.414L13,10.414l-1.293,1.293a1,1,0,0,1-1.414-1.414L11.586,9,10.293,7.707a1,1,0,0,1,1.414-1.414L13,7.586l1.293-1.293a1,1,0,0,1,1.414,1.414L14.414,9Z"/> <rect fill="#ff0006" y="3" width="6" height="12" rx="1" ry="1"/> </g>
</svg>