<?xml version="1.0" encoding="iso-8859-1"?>
<!-- Uploaded to: SVG Repo, www.svgrepo.com, Generator: SVG Repo Mixer Tools -->
<svg height="800px" width="800px" version="1.1" id="Layer_1" xmlns="http://www.w3.org/2000/svg" xmlns:xlink="http://www.w3.org/1999/xlink" 
	 viewBox="0 0 512 512" xml:space="preserve">
<path style="fill:#3D83CC;" d="M440.456,162.163H269.724c-34.952,0-63.286,28.334-63.286,63.286V363.62
	c0,34.952,28.334,63.286,63.286,63.286h170.732c34.952,0,63.286-28.334,63.286-63.286V225.45
	C503.743,190.497,475.408,162.163,440.456,162.163z"/>
<path style="fill:#D9576D;" d="M325.875,162.163H71.544c-34.952,0-63.286,28.334-63.286,63.286V363.62
	c0,34.952,28.334,63.286,63.286,63.286h254.331V162.163z"/>
<path style="fill:#FFF7E6;" d="M8.257,325.636v36.066c12.004,22.71,35.861,38.23,63.286,38.23h368.911
	c27.426,0,52.259-13.739,63.286-40.433V320.13c-5.487,28.348-10.294,35.509-10.294,35.509
	c-14.313,28.442-52.993,27.777-52.993,27.777H71.544c0,0-25.697,1.675-40.974-14.29C30.57,369.127,7.138,348.892,8.257,325.636z"/>
<path style="fill:#4DA3FF;" d="M440.456,85.093H269.724c-34.952,0-63.286,28.334-63.286,63.286v138.171
	c0,34.952,28.334,63.286,63.286,63.286h170.732c34.952,0,63.286-28.334,63.286-63.286V148.38
	C503.743,113.427,475.408,85.093,440.456,85.093z"/>
<path style="fill:#FF8095;" d="M325.875,85.093H71.544c-34.952,0-63.286,28.334-63.286,63.286v138.171
	c0,34.952,28.334,63.286,63.286,63.286h254.331V85.093z"/>
<path style="fill:#26150C;" d="M440.456,76.836H71.544C32.094,76.836,0,108.93,0,148.38v138.171c0,0,0,0.007,0,0.011v77.06
	c0,39.449,32.094,71.543,71.544,71.543h368.912c39.45,0,71.544-32.094,71.544-71.543v-77.07l0,0v-0.001V148.38
	C512,108.93,479.905,76.836,440.456,76.836z M16.515,286.546V148.38c0-30.343,24.685-55.029,55.029-55.029h246.074v248.23H71.544
	c-3.132,0-6.2-0.277-9.191-0.783c-21.454-3.624-38.734-19.694-44.103-40.51c-1.133-4.392-1.735-8.995-1.735-13.736
	C16.515,286.552,16.515,286.546,16.515,286.546z M495.485,363.621c0,30.343-24.685,55.028-55.029,55.028H71.544
	c-30.343,0-55.029-24.685-55.029-55.029c0-9.75-1.644-21.19,0.243-30.615c9.832,7.311,17.238,15.382,29.122,20.077
	c17.181,6.788,35.453,5.013,53.508,5.013c13.89,0,27.78,0,41.672,0c37.611,0,75.223,0,112.835,0c37.88,0,75.76,0,113.639,0
	c24.648,0,49.536,1.027,74.152,0.145c10.068-0.361,20.037-2.854,29.141-7.153c9.75-4.604,16.099-11.889,24.407-18.094
	C497.156,342.4,495.485,353.882,495.485,363.621z M495.485,286.551c0,27.499-20.275,50.351-46.66,54.395
	c-2.729,0.418-5.525,0.635-8.37,0.635H334.132V93.351h106.323c30.344,0,55.029,24.687,55.029,55.029v138.171H495.485z"/>
</svg>