<?xml version="1.0" encoding="UTF-8" standalone="no"?>
<!-- Created with Inkscape (http://www.inkscape.org/) -->

<svg
   width="215mm"
   height="215mm"
   viewBox="0 0 215 215"
   version="1.1"
   id="svg5"
   inkscape:version="1.1 (c68e22c387, 2021-05-23)"
   sodipodi:docname="family-svgrepo-com.svg"
   xmlns:inkscape="http://www.inkscape.org/namespaces/inkscape"
   xmlns:sodipodi="http://sodipodi.sourceforge.net/DTD/sodipodi-0.dtd"
   xmlns="http://www.w3.org/2000/svg"
   xmlns:svg="http://www.w3.org/2000/svg">
  <sodipodi:namedview
     id="namedview7"
     pagecolor="#ffffff"
     bordercolor="#666666"
     borderopacity="1.0"
     inkscape:pageshadow="2"
     inkscape:pageopacity="0.0"
     inkscape:pagecheckerboard="0"
     inkscape:document-units="mm"
     showgrid="false"
     height="296mm"
     inkscape:zoom="0.32756265"
     inkscape:cx="22.896383"
     inkscape:cy="349.55145"
     inkscape:window-width="1366"
     inkscape:window-height="705"
     inkscape:window-x="-8"
     inkscape:window-y="-8"
     inkscape:window-maximized="1"
     inkscape:current-layer="SVGRepo_iconCarrier" />
  <defs
     id="defs2" />
  <g
     inkscape:label="Capa 1"
     inkscape:groupmode="layer"
     id="layer1">
    <g
       style="fill:#000000"
       id="g35"
       transform="matrix(3.3072917,0,0,3.3072917,-1.3049215,20.563645)">
      <g
         id="SVGRepo_bgCarrier"
         stroke-width="0" />
      <g
         id="SVGRepo_tracerCarrier"
         stroke-linecap="round"
         stroke-linejoin="round" />
      <g
         id="SVGRepo_iconCarrier">
        <path
           d="M 56.539912,-5.3752459 H 9.7559124 c -4.585,0 -8.3150001,3.73 -8.3150001,8.315 V 49.720754 c 0,4.586 3.7300001,8.316 8.3150001,8.316 H 56.539912 c 4.583,0 8.314,-3.73 8.314,-8.316 V 2.9397541 c 0,-4.586 -3.731,-8.315 -8.314,-8.315 z m -10.476,16.6749999 a 5.768,5.768 0 0 1 5.768,5.77 5.77,5.77 0 1 1 -5.768,-5.77 z m 3.177,13.02 c -0.045,5.781 -1.045,6.542 -3.143,6.542 -2.096,0 -3.097,-0.761 -3.141,-6.542 z m -17.354,-14.7859999 a 1.279,1.279 0 0 1 0.001,2.5549999 1.278,1.278 0 1 1 0,-2.5549999 z m -9.131,-8.129 a 1.822,1.822 0 0 1 0,3.641 1.8205,1.8205 0 1 1 0,-3.641 z m -9.883,-0.013 c 1.02,0 1.849,0.821 1.849,1.833 0,1.013 -0.829,1.833 -1.849,1.833 -1.02,0 -1.848,-0.821 -1.848,-1.833 a 1.84,1.84 0 0 1 1.848,-1.833 z m 5.619,11.7479999 c -0.093,0.328 -0.456,0.594 -0.812,0.564 -0.356,0.03 -0.657,-0.236 -0.753,-0.564 l -1.414,-4.9419999 h -0.691 l 2.05,8.5559999 h -1.798 v 6.077 a 0.9075,0.9075 0 0 1 -1.815,0 v -6.077 h -0.765 v 6.077 a 0.91,0.91 0 0 1 -0.912,0.907 0.905,0.905 0 0 1 -0.905,-0.907 v -6.077 H 8.8489124 L 10.917912,8.1977541 h -0.691 L 8.8139124,13.139754 c -0.11,0.378 -0.563,0.666 -0.977,0.548 -0.413,-0.119 -0.645,-0.562 -0.506,-1.034 l 1.455,-5.0699999 c 0.582,-2.026 2.2769996,-1.962 2.2769996,-1.962 h 3.616 c 0,0 1.696,-0.064 2.278,1.962 l 0.755,2.6309999 0.755,-2.6309999 c 0.581,-2.026 2.278,-1.962 2.278,-1.962 h 4.673 c 0,0 1.696,-0.064 2.278,1.962 l 1.441,5.0239999 1.121,0.109 3.48,-0.004 c 0.901,0 1.698,0.734 1.698,1.638 v 3.229 c 0,0.309 -0.242,0.56 -0.552,0.56 a 0.558,0.558 0 0 1 -0.557,-0.56 v -2.84 h -0.58 v 8.376 a 0.753,0.753 0 0 1 -1.503,0 v -4.481 h -0.587 v 4.481 a 0.75,0.75 0 0 1 -0.748,0.749 0.754,0.754 0 0 1 -0.755,-0.749 h -10e-4 v -8.965 l -1.834,-0.513 c -0.318,-0.096 -0.616,-0.376 -0.698,-0.662 l -1.314,-4.7779999 h -0.691 V 22.655754 a 1.07,1.07 0 0 1 -2.139,0 v -8.226 h -0.789 v 8.226 a 1.071,1.071 0 0 1 -2.142,0 V 8.1977541 h -0.637 l -1.416,4.9419999 z m 39.071,35.585 c 0,1.397 -0.126,2.529 -0.126,2.529 h -19.285 v -17.53 h -0.786 l -3.58,5.341 c -0.583,0.795 -1.767,1.18 -2.709,1.18 h -8.404 a 2.527,2.527 0 0 1 -2.529,-2.526 c 0,-1.392 1.132,-2.492 2.529,-2.492 h 7.644 l 5.302,-8.019 c 1.273,-1.939 3.628,-2.864 5.756,-2.864 0,5.639 1.405,8.026 3.946,8.026 v 9.376 a 2.01,2.01 0 0 0 -1.216,1.846 c 0,1.108 0.886,1.995 1.994,1.995 1.109,0 1.997,-0.912 1.997,-2.023 0,-0.827 -0.502,-1.537 -1.217,-1.843 v -9.379 c 2.539,-0.001 3.947,-2.384 3.947,-8.023 4.223,0 6.737,2.516 6.737,6.369 z"
           fill="#ff8040"
           id="path22"
           style="fill:#ff2a2a;stroke:#000000;stroke-opacity:1" />
      </g>
    </g>
  </g>
</svg>
