<?xml version="1.0" encoding="utf-8"?>
<!-- Uploaded to: SVG Repo, www.svgrepo.com, Generator: SVG Repo Mixer Tools -->
<svg width="800px" height="800px" viewBox="0 0 64 64" xmlns="http://www.w3.org/2000/svg">
<defs>
<style>.cls-1{fill:#fff35f;}.cls-1,.cls-3,.cls-4,.cls-5,.cls-6,.cls-7,.cls-8,.cls-9{stroke:#54596e;stroke-linejoin:round;stroke-width:2px;}.cls-1,.cls-3,.cls-4,.cls-5,.cls-6,.cls-7,.cls-8{stroke-linecap:round;}.cls-2{fill:#a1b7ff;}.cls-3{fill:#61c5a8;}.cls-4{fill:#55a6ff;}.cls-5{fill:#ffd578;}.cls-6{fill:#999;}.cls-7{fill:#ff80c3;}.cls-8,.cls-9{fill:none;}.cls-9{stroke-linecap:square;}</style>
</defs>
<title>family-institution</title>
<g id="family-institution">
<path class="cls-1" d="M19.05,6.67c-3.41,0-6.25-1.15-6.91-2.67h-.28C11.2,5.52,8.36,6.67,5,6.67A13.15,13.15,0,0,1,1,6.1C1.69,21.77,12,28,12,28S22.31,21.77,23,6.1A13.15,13.15,0,0,1,19.05,6.67Z"/>
<path class="cls-2" d="M16.49,9.67c-2.17,0-4-.72-4.4-1.67h-.18c-.42.95-2.23,1.67-4.4,1.67A8.35,8.35,0,0,1,5,9.31C5.44,19.1,12,23,12,23s6.56-3.9,7-13.69A8.35,8.35,0,0,1,16.49,9.67Z"/>
<path class="cls-3" d="M28,25h0a7,7,0,0,1,7,7V46a0,0,0,0,1,0,0H21a0,0,0,0,1,0,0V32A7,7,0,0,1,28,25Z"/>
<rect class="cls-4" x="24" y="46" width="8" height="16"/>
<circle class="cls-5" cx="28" cy="20" r="5"/>
<polygon class="cls-6" points="42 62 36 62 35 46 43 46 42 62"/>
<circle class="cls-5" cx="39" cy="20" r="5"/>
<path class="cls-7" d="M40.65,25h-3.3a2,2,0,0,0-1.93,1.46L30,46H48L42.58,26.46A2,2,0,0,0,40.65,25Z"/>
<line class="cls-8" x1="39" y1="54" x2="39" y2="62"/>
<line class="cls-8" x1="28" y1="54" x2="28" y2="62"/>
<path class="cls-1" d="M47,35h0a6,6,0,0,1,6,6v9a0,0,0,0,1,0,0H41a0,0,0,0,1,0,0V41A6,6,0,0,1,47,35Z"/>
<rect class="cls-4" x="43" y="50" width="8" height="12"/>
<circle class="cls-5" cx="47" cy="31" r="4"/>
<line class="cls-8" x1="47" y1="56" x2="47" y2="62"/>
<line class="cls-9" x1="8" y1="62" x2="63" y2="62"/>
</g>
</svg>