<?xml version="1.0" encoding="utf-8"?>
<!-- Uploaded to: SVG Repo, www.svgrepo.com, Generator: SVG Repo Mixer Tools -->
<svg width="800px" height="800px" viewBox="0 -56 1136 1136" class="icon"  version="1.1" xmlns="http://www.w3.org/2000/svg"><path d="M131.938462 570.88h126.621538L592.738462 246.153846l332.996923 324.726154h126.621538s22.055385-6.498462-7.286154-30.523077C1015.729231 516.332308 629.366154 119.532308 629.366154 119.532308s-28.356923-40.763077-78.572308 0S131.938462 550.793846 131.938462 550.793846s-18.707692 12.8 0 20.086154z" fill="#FFA44C" /><path d="M1057.083077 525.784615c-22.449231-18.510769-280.024615-281.796923-413.341539-418.658461-4.135385-5.12-18.116923-20.676923-41.353846-24.024616-20.676923-2.953846-41.944615 4.332308-63.40923 21.661539-49.230769 39.975385-380.061538 389.907692-419.446154 431.852308-5.316923 4.135385-16.147692 14.178462-14.572308 28.750769 0.787692 5.907692 4.332308 16.935385 20.283077 23.04l3.347692 1.181538h137.846154l326.301539-317.046154 325.316923 317.243077h137.058461l2.56-0.787692c8.073846-2.363077 18.313846-9.452308 20.873846-21.858461 4.135385-20.283077-15.163077-36.036923-21.464615-41.353847zM156.750769 551.975385c60.455385-63.803077 362.141538-382.424615 405.858462-417.87077 12.8-10.436923 24.221538-14.966154 34.067692-13.784615 10.24 1.378462 16.541538 9.255385 17.132308 10.043077l1.969231 2.363077c38.4 39.581538 368.049231 377.895385 413.932307 419.446154H933.415385L592.738462 219.766154 251.076923 551.975385H156.750769z" fill="#493B4E" /><path d="M308.972308 615.778462l257.575384-258.56s22.055385-29.341538 55.532308 0 254.424615 258.56 254.424615 258.56v287.704615h-186.28923s-3.150769-167.581538-3.15077-168.172308c-1.772308-97.673846-181.563077-96.886154-187.470769-4.135384-5.316923 81.723077-3.150769 172.504615-3.150769 172.504615h-187.470769V615.778462z" fill="#FFA44C" /><path d="M496.443077 903.483077h193.772308l-4.529231-179.790769s-5.513846-69.12-94.326154-59.667693c0 0-63.015385-9.255385-84.283077 35.643077 0 0-7.876923 1.969231-9.452308 65.772308s-1.181538 138.043077-1.181538 138.043077z" fill="#FFFFFF" /><path d="M890.092308 602.781538c-9.058462-9.452308-221.735385-230.006154-255.606154-259.741538-15.163077-13.193846-30.916923-19.101538-46.867692-17.329231-19.495385 1.969231-31.507692 14.769231-35.052308 19.101539L290.067692 607.901538v314.289231H895.212308V608.098462l-5.12-5.316924z m-184.32 132.135385c0-0.590769 0-5.907692-1.378462-13.587692-0.590769-5.12-4.923077-34.658462-30.326154-55.729231-0.393846-0.393846-0.984615-0.787692-1.378461-0.984615-20.283077-16.541538-47.458462-23.236923-80.935385-19.692308-12.209231-1.575385-50.609231-3.938462-79.556923 18.904615-0.590769 0.590769-1.378462 1.181538-1.969231 1.575385-0.393846 0.196923-0.590769 0.590769-0.984615 0.787692-0.590769 0.393846-0.984615 0.984615-1.575385 1.378462-0.590769 0.590769-1.378462 1.181538-1.96923 1.969231l-0.787693 0.787692c-0.787692 0.787692-1.575385 1.772308-2.363077 2.56-0.196923 0.196923-0.393846 0.393846-0.393846 0.590769-0.787692 0.984615-1.575385 1.772308-2.363077 2.756923-0.196923 0.393846-0.590769 0.590769-0.787692 0.984616l-1.772308 2.363076c-1.772308 2.56-3.544615 5.316923-5.12 8.073847-3.544615 4.332308-7.089231 11.421538-9.452307 27.963077-0.787692 4.332308-1.378462 9.058462-1.772308 13.784615 0 0.590769 0 1.378462-0.196923 1.969231-0.787692 9.058462-1.378462 20.086154-1.772308 33.28-1.969231 48.049231-1.969231 94.72-1.575385 119.532307h-149.464615V623.655385l252.061539-253.046154 1.575384-1.772308s4.332308-5.12 10.043077-5.710769c5.12-0.590769 11.224615 2.363077 18.116923 8.270769 29.735385 25.993846 218.584615 221.735385 247.926154 252.061539v261.12h-149.070769l-2.756923-149.661539z m-189.243077 31.310769c0.393846-9.846154 0.984615-19.889231 1.575384-29.735384 0.590769-6.695385 1.181538-11.815385 1.772308-15.556923 1.575385-7.483077 4.332308-13.981538 8.073846-19.298462 17.723077-24.024615 59.076923-19.298462 60.652308-18.904615l2.363077 0.393846 2.56-0.393846c24.221538-2.56 42.929231 1.181538 55.532308 11.224615 0.196923 0.196923 0.590769 0.393846 0.787692 0.590769 10.830769 9.452308 15.163077 22.449231 17.132308 31.31077l3.938461 158.523076h-155.569231c-0.196923-24.418462 0.196923-74.24 1.181539-118.153846z" fill="#493B4E" /></svg>