<?xml version="1.0" encoding="iso-8859-1"?>
<!-- Uploaded to: SVG Repo, www.svgrepo.com, Generator: SVG Repo Mixer Tools -->
<svg height="800px" width="800px" version="1.1" id="Layer_1" xmlns="http://www.w3.org/2000/svg" xmlns:xlink="http://www.w3.org/1999/xlink" 
	 viewBox="0 0 502.001 502.001" xml:space="preserve">
<g>
	<polygon style="fill:#EBD2B4;" points="431.295,169.648 251.001,33.328 70.706,169.648 70.706,468.674 431.295,468.674 	"/>
	<g>
		<polygon style="fill:#FF2E3D;" points="363.001,253.401 291.601,253.401 291.601,182.001 210.401,182.001 210.401,253.401 
			139.001,253.401 139.001,334.601 210.401,334.601 210.401,406.001 291.601,406.001 291.601,334.601 363.001,334.601 		"/>
		<g>
			<path d="M11.97,201.522l-8,6.049c-4.406,3.331-5.277,9.602-1.946,14.007c1.966,2.601,4.957,3.97,7.984,3.97
				c2.101,0,4.219-0.659,6.023-2.024l8-6.049c4.406-3.331,5.277-9.602,1.946-14.007C22.646,199.061,16.374,198.19,11.97,201.522z"/>
			<path d="M498.032,207.57l-60.705-45.899l0,0L257.032,25.351c-3.568-2.698-8.494-2.698-12.062,0L36.434,183.024
				c-4.405,3.331-5.276,9.602-1.945,14.008s9.603,5.277,14.008,1.945l12.209-9.232v278.928c0,5.523,4.477,10,10,10h360.589
				c5.522,0,10-4.477,10-10V189.746l44.674,33.778c1.805,1.365,3.923,2.024,6.023,2.024c3.027,0,6.019-1.369,7.984-3.969
				C503.308,217.173,502.437,210.902,498.032,207.57z M421.296,458.674H80.706v-284.05l170.295-128.76l170.295,128.759
				L421.296,458.674L421.296,458.674z"/>
			<path d="M246.023,71.149c-3.331,4.405-2.46,10.677,1.945,14.008l20.924,15.821c1.805,1.365,3.923,2.024,6.023,2.024
				c3.027,0,6.019-1.369,7.984-3.969c3.331-4.405,2.46-10.677-1.945-14.008L260.03,69.204
				C255.626,65.872,249.354,66.744,246.023,71.149z"/>
			<path d="M293.968,119.938l99,74.854c1.805,1.365,3.923,2.024,6.023,2.024c3.027,0,6.019-1.369,7.984-3.969
				c3.331-4.406,2.46-10.677-1.945-14.008l-99-74.854c-4.405-3.331-10.678-2.458-14.008,1.945
				C288.692,110.336,289.563,116.607,293.968,119.938z"/>
			<path d="M363.001,243.401h-61.4v-61.4c0-5.523-4.478-10-10-10h-81.2c-5.523,0-10,4.477-10,10v61.4h-61.4c-5.523,0-10,4.477-10,10
				v81.2c0,5.523,4.477,10,10,10h61.4v61.4c0,5.523,4.477,10,10,10h81.2c5.522,0,10-4.477,10-10v-61.4h61.4c5.522,0,10-4.477,10-10
				v-81.2C373.001,247.878,368.523,243.401,363.001,243.401z M353.001,324.601h-61.4c-5.522,0-10,4.477-10,10v61.4h-61.2v-61.4
				c0-5.523-4.477-10-10-10h-61.4v-61.2h61.4c5.523,0,10-4.477,10-10v-61.4h61.2v61.4c0,5.523,4.478,10,10,10h61.4V324.601z"/>
		</g>
	</g>
</g>
</svg>