<!DOCTYPE svg PUBLIC "-//W3C//DTD SVG 1.1//EN" "http://www.w3.org/Graphics/SVG/1.1/DTD/svg11.dtd">
<!-- Uploaded to: SVG Repo, www.svgrepo.com, Transformed by: SVG Repo Mixer Tools -->
<svg version="1.1" id="Layer_1" xmlns="http://www.w3.org/2000/svg" xmlns:xlink="http://www.w3.org/1999/xlink" viewBox="0 0 512 512" xml:space="preserve" width="800px" height="800px" fill="#004080" stroke="#004080">
<g id="SVGRepo_bgCarrier" stroke-width="0"/>
<g id="SVGRepo_tracerCarrier" stroke-linecap="round" stroke-linejoin="round"/>
<g id="SVGRepo_iconCarrier"> <path d="M374.672,512H91.744c-15.979-0.049-28.92-12.99-28.968-28.968V28.968C62.825,12.99,75.766,0.049,91.744,0h328.513 c15.979,0.049,28.92,12.99,28.968,28.968v408.696"/> <g> <path style="fill:#E21B1B;" d="M374.656,452.536V512l74.568-74.337h-59.696C381.323,437.686,374.678,444.332,374.656,452.536z"/> <rect x="200.519" y="313.148" style="fill:#E21B1B;" width="110.532" height="8"/> </g> <g> <rect x="142.892" y="345.372" style="fill:#BCBCBC;" width="225.796" height="8"/> <rect x="142.892" y="377.604" style="fill:#BCBCBC;" width="225.796" height="8"/> </g> <g> <circle style="fill:#C9C9C9;" cx="255.795" cy="128.268" r="42.44"/> <path style="fill:#C9C9C9;" d="M322.992,259.736c-0.736-40.544-30.512-73.176-67.2-73.176s-66.464,32.632-67.2,73.176H322.992z"/> </g> </g>
</svg>