<!DOCTYPE svg PUBLIC "-//W3C//DTD SVG 1.1//EN" "http://www.w3.org/Graphics/SVG/1.1/DTD/svg11.dtd">
<!-- Uploaded to: SVG Repo, www.svgrepo.com, Transformed by: SVG Repo Mixer Tools -->
<svg width="800px" height="800px" viewBox="0 0 24 24" id="magicoon-Filled" xmlns="http://www.w3.org/2000/svg" fill="#000000">
<g id="SVGRepo_bgCarrier" stroke-width="0"/>
<g id="SVGRepo_tracerCarrier" stroke-linecap="round" stroke-linejoin="round"/>
<g id="SVGRepo_iconCarrier"> <defs> <style>.cls-1{fill:#069538;}</style> </defs> <title>log-in</title> <g id="log-in-Filled"> <path id="log-in-Filled-2" data-name="log-in-Filled" class="cls-1" d="M21,7V17a5.006,5.006,0,0,1-5,5H12a1,1,0,0,1,0-2h4a3,3,0,0,0,3-3V7a3,3,0,0,0-3-3H12a1,1,0,0,1,0-2h4A5.006,5.006,0,0,1,21,7Zm-6.293,4.293-4-4A1,1,0,1,0,9.293,8.707L11.586,11H4a1,1,0,0,0,0,2h7.586L9.293,15.293a1,1,0,1,0,1.414,1.414l4-4A1,1,0,0,0,14.707,11.293Z"/> </g> </g>
</svg>