<!DOCTYPE svg PUBLIC "-//W3C//DTD SVG 1.1//EN" "http://www.w3.org/Graphics/SVG/1.1/DTD/svg11.dtd">
<!-- Uploaded to: SVG Repo, www.svgrepo.com, Transformed by: SVG Repo Mixer Tools -->
<svg height="800px" width="800px" version="1.1" id="Layer_1" xmlns="http://www.w3.org/2000/svg" xmlns:xlink="http://www.w3.org/1999/xlink" viewBox="0 0 297 297" xml:space="preserve" fill="#000000">
<g id="SVGRepo_bgCarrier" stroke-width="0"/>
<g id="SVGRepo_tracerCarrier" stroke-linecap="round" stroke-linejoin="round"/>
<g id="SVGRepo_iconCarrier"> <g id="XMLID_42_"> <g> <path style="fill:#ff0000;" d="M176,142c3.59,0,6.5,2.92,6.5,6.5s-2.91,6.5-6.5,6.5H71.5c-3.68,0-7.07,2.03-8.81,5.28 s-1.55,7.2,0.49,10.27L74.82,188H54.85l-26.33-39.5L54.85,109h19.97l-11.64,17.45c-2.04,3.07-2.23,7.02-0.49,10.27 c1.74,3.25,5.13,5.28,8.81,5.28H176z"/> <path style="fill:#ffff00;" d="M270.5,20v257H142V175h34c14.62,0,26.5-11.89,26.5-26.5S190.62,122,176,122h-34V20H270.5z"/> <path d="M290.5,10v277c0,5.52-4.47,10-10,10H132c-5.52,0-10-4.48-10-10V175H90.19l11.63,17.45c2.05,3.07,2.24,7.02,0.5,10.27 S97.19,208,93.5,208h-44c-3.34,0-6.46-1.67-8.32-4.45l-33-49.5c-2.24-3.36-2.24-7.74,0-11.1l33-49.5C43.04,90.67,46.16,89,49.5,89 h44c3.69,0,7.08,2.03,8.82,5.28s1.55,7.2-0.5,10.27L90.19,122H122V10c0-5.52,4.48-10,10-10h148.5C286.03,0,290.5,4.48,290.5,10z M270.5,277V20H142v102h34c14.62,0,26.5,11.89,26.5,26.5S190.62,175,176,175h-34v102H270.5z M182.5,148.5c0-3.58-2.91-6.5-6.5-6.5 H71.5c-3.68,0-7.07-2.03-8.81-5.28s-1.55-7.2,0.49-10.27L74.82,109H54.85l-26.33,39.5L54.85,188h19.97l-11.64-17.45 c-2.04-3.07-2.23-7.02-0.49-10.27c1.74-3.25,5.13-5.28,8.81-5.28H176C179.59,155,182.5,152.08,182.5,148.5z"/> </g> </g> </g>
</svg>