<?xml version="1.0" encoding="utf-8"?>
<!-- Uploaded to: SVG Repo, www.svgrepo.com, Generator: SVG Repo Mixer Tools -->
<svg width="800px" height="800px" viewBox="-49.44 0 334.622 334.622" xmlns="http://www.w3.org/2000/svg"><defs><style>.a{fill:#f7a19f;}.b{fill:#211715;}.c{fill:#6dbf6b;}.d{fill:#ffffff;}.e{fill:#7a7473;}</style></defs><path class="a" d="M94.105,161.805a73.822,73.822,0,0,1-1.146,11.575c-.653,3.723-.448,7.052-5.625,8.922-.41.148-14.238,6.75-17.835,7.871,9.574,6.734,29.033,13.7,47.167,13.746,16.219.04,38.291-6.489,45.953-12.978l1.471-1.556c-4.835-2.171-15.524-6.986-15.793-7.083-5.177-1.87-4.973-5.2-5.625-8.922a73.943,73.943,0,0,1-1.147-11.575Z"/><path class="b" d="M91.705,161.805a94.713,94.713,0,0,1-1.386,13.033,17.006,17.006,0,0,1-.4,1.964,3.6,3.6,0,0,1-.715,1.544,8.187,8.187,0,0,1-3.118,1.9c-3.826,1.687-7.581,3.544-11.383,5.283-1.285.588-2.572,1.173-3.865,1.742-.242.106-.483.212-.726.317-.2.087-.86.359-.289.126-.335.136-.668.275-1.007.4a2.463,2.463,0,0,0-1.677,2.953,2.422,2.422,0,0,0,2.953,1.676c4.728-1.7,9.275-4.087,13.822-6.209A35.7,35.7,0,0,0,88.49,184.4c.177-.117-.975.392-.325.146.286-.108.568-.227.848-.347a11.624,11.624,0,0,0,1.416-.7,9.1,9.1,0,0,0,2.216-1.816,9.71,9.71,0,0,0,2.087-4.37,82.723,82.723,0,0,0,1.773-15.507c.062-3.09-4.738-3.09-4.8,0Z"/><path class="b" d="M139.125,161.805a91.425,91.425,0,0,0,1.695,15.113,10.025,10.025,0,0,0,2.165,4.764,9.158,9.158,0,0,0,2.361,1.9,13.157,13.157,0,0,0,1.558.732,6.615,6.615,0,0,1,.755.3c.169.1-.729-.34-.476-.2,1.565.861,3.323,1.482,4.952,2.213q4.005,1.8,8.01,3.6c1.876.843,3.743,1.713,5.639,2.511a2.415,2.415,0,0,0,2.953-1.676,2.464,2.464,0,0,0-1.677-2.953c1.067.449.4.168.153.057-.315-.142-.631-.282-.947-.423q-1.387-.621-2.774-1.245l-7.517-3.379c-1.928-.866-3.855-1.736-5.788-2.593-.7-.311-1.434-.562-2.109-.918a4.984,4.984,0,0,1-1.7-1.321,4.454,4.454,0,0,1-.666-1.486,49.413,49.413,0,0,1-1.041-5.978,69.486,69.486,0,0,1-.747-9.019c-.062-3.085-4.862-3.095-4.8,0Z"/><path class="c" d="M233.343,332.239c-.617-12.523-1.174-24.19-1.309-28.267-.445-9.926-2.406-35.3-3.643-50.148-.889-10.667-2.284-26.534-8.135-34.519-3.8-5.183-12.668-11.433-18.222-14.666-8.515-4.957-23.026-11.167-36.94-15.825-1.388,1.194-2.475,2.127-2.475,2.127-7.662,6.489-29.734,13.018-45.953,12.978-17.441-.044-36.107-6.489-46.027-12.978l-2.234-1.489c-2.494.833-4.923,1.647-5.317,1.807-16.3,6.638-34.156,13.185-41.72,28.01a133.128,133.128,0,0,0-9.486,23.021C8.575,252.351,3.006,267.672,2.5,277.984c-.907,18.329,5.02,31.888,13.4,39.668,8.576,7.959,17.976,7.627,26.836,3.47,0,4.488.021,6.985.039,11.1Z"/><path class="d" d="M63.957,79.7a44.122,44.122,0,0,0,.372,11.445,8.147,8.147,0,0,0-6.521-1.908,7.7,7.7,0,0,0-5.533,3.678,10.879,10.879,0,0,0-1.139,4.377,32.608,32.608,0,0,0,3.325,17.284,20.725,20.725,0,0,0,5.358,7.033,13.751,13.751,0,0,0,6.39,2.88l2.082.319a55.466,55.466,0,0,0,10.568,20.628c7.729,9.251,16.921,15,27.192,16.008,0,0,10.969.721,16.6.721,5.037,0,16.009-2.23,16.009-2.23,15.514-3.447,28.566-25.07,30.672-30.784.288-.877.877-2.528,1.4-4.488.7-.113,1.1-.174,1.1-.174a13.748,13.748,0,0,0,6.389-2.88,20.728,20.728,0,0,0,5.359-7.033A32.607,32.607,0,0,0,186.9,97.29a10.863,10.863,0,0,0-1.139-4.377,7.693,7.693,0,0,0-5.533-3.678,8.148,8.148,0,0,0-6.521,1.908s5.24-48.98-56.982-48.98C74.031,42.163,65.258,65.223,63.957,79.7Z"/><path class="e" d="M164.1,75.216a83.056,83.056,0,0,1,9.335,15.972,8.093,8.093,0,0,1,6.8-2.173,7.285,7.285,0,0,1,1.419.358c4.054-10.41,4.648-25.492-.47-39.8-3.6-10.06-12.568-20.6-18.939-23.537l-9.2-6.614c-7.837-10.735-19.684-16.393-36.4-16.9C100.98,2.038,82.941,5.2,69.227,19l4.414,4.455C65.559,28.645,59.233,38.366,56.3,46.989c-3.521,10.338-4.572,25.048-.392,42.428l.03.125a7.759,7.759,0,0,1,1.873-.527,8.058,8.058,0,0,1,6.977,2.358C80.558,76.3,94.3,67.347,108.154,56.46c.08.922,3.033,8.305,3.724,8.586.94.382,11.259-6.1,18.454-10.533l11.325,2.98a42.272,42.272,0,0,1,13.278,7.776A62.889,62.889,0,0,1,164.1,75.216Z"/><path class="a" d="M217.32,117.018c-2.138,2.751-10.5,14.229-11.952,16.109-2.128-2.277-6.15-6.192-7.639-7.607-2.963,4.367-15.679,25.109-19.106,30.335,1.6-1.177,16.47-11.116,19.685-13.524.334,1.679,1.122,4.919,1.79,7.583,2.261-1.6,23.47-18.054,28.3-21.889C227.459,127.126,218.488,118.172,217.32,117.018Z"/><path class="a" d="M212.508,160.538c-2.41,1.014-12.094,5.447-13.735,6.143-.555-2.27-1.747-6.308-2.2-7.78-3.541,1.767-19.477,10.66-23.638,12.819,1.479-.182,14.854-1.219,17.841-1.613-.4,1.221-1.073,3.629-1.615,5.617,2.068-.218,21.98-3.185,26.549-3.918C215.424,170.873,212.847,161.721,212.508,160.538Z"/><path class="b" d="M175.4,92.84a5.676,5.676,0,0,1,7.913.7c1.086,1.4,1.195,3.388,1.27,5.083a29.19,29.19,0,0,1-.35,6.215c-1.234,7.194-5.031,15.961-13.047,17.338a2.419,2.419,0,0,0-1.676,2.953,2.455,2.455,0,0,0,2.952,1.676c8.234-1.415,13.136-9.157,15.418-16.578a34.428,34.428,0,0,0,1.466-12.269c-.261-3.989-1.468-7.74-5.134-9.828a10.656,10.656,0,0,0-12.206,1.32,2.421,2.421,0,0,0,0,3.394,2.45,2.45,0,0,0,3.394,0Z"/><path class="b" d="M169.344,118.419a27.452,27.452,0,0,1-1.3,6.912c-.259.87-.545,1.732-.834,2.592-.078.233-.152.467-.237.7-.036.1-.08.191-.114.289-.173.5.139-.307.029-.066a58.087,58.087,0,0,1-3.607,6.6,64.989,64.989,0,0,1-14.512,16.739,27.631,27.631,0,0,1-10.751,5.439c-3.01.691-1.736,5.32,1.276,4.628,8.114-1.864,14.912-7.7,20.272-13.813a70.172,70.172,0,0,0,11.313-16.824,35.643,35.643,0,0,0,3.261-13.191c.1-3.089-4.7-3.086-4.8,0Z"/><path class="b" d="M66.027,89.446A10.615,10.615,0,0,0,55.1,87.527c-3.871,1.589-5.779,4.918-6.273,8.945a33.437,33.437,0,0,0,5.846,23.1,17.419,17.419,0,0,0,10.9,7.233,2.47,2.47,0,0,0,2.952-1.676,2.421,2.421,0,0,0-1.676-2.953C58.831,120.8,55.033,112.027,53.8,104.834a29.186,29.186,0,0,1-.358-5.993c.063-1.712.145-3.713,1.181-5.16a5.646,5.646,0,0,1,8.01-.841,2.464,2.464,0,0,0,3.4,0,2.421,2.421,0,0,0,0-3.394Z"/><path class="b" d="M64.222,117.622c2.963,17.1,12.223,33.838,28.061,42.094a38.055,38.055,0,0,0,13.768,4.126,2.416,2.416,0,0,0,2.4-2.4,2.454,2.454,0,0,0-2.4-2.4c-16.359-1.695-29.109-16.356-34.254-31.094a72.977,72.977,0,0,1-2.946-11.6A2.42,2.42,0,0,0,65.9,114.67a2.455,2.455,0,0,0-1.677,2.952Z"/><path class="b" d="M161.027,28.107a26.98,26.98,0,0,1,8,6.392,51.71,51.71,0,0,1,7.493,10.539c4.472,8.3,6.187,18.237,5.905,27.6a50.506,50.506,0,0,1-2.371,14.09c-.956,2.945,3.678,4.207,4.628,1.276,3.035-9.356,3.2-19.553,1.456-29.175A55.058,55.058,0,0,0,173.565,32.39c-2.82-3.271-6.165-6.56-10.116-8.428a2.468,2.468,0,0,0-3.283.861,2.421,2.421,0,0,0,.861,3.284Z"/><path class="b" d="M78,18.6c-9.757,3.658-17.007,12.431-21.464,21.587-4.381,9-5.933,19.067-5.732,29.015A98.878,98.878,0,0,0,53.59,90.055c.715,3,5.345,1.732,4.629-1.276-4.5-18.888-4.2-40.569,8.84-56.162,3.3-3.941,7.344-7.557,12.218-9.385a2.466,2.466,0,0,0,1.677-2.952A2.42,2.42,0,0,0,78,18.6Z"/><path class="b" d="M155.112,18.21A41.758,41.758,0,0,0,142.445,6.661,48.4,48.4,0,0,0,125.233.887c-12.571-1.851-26.22-.9-38.117,3.731A56.648,56.648,0,0,0,67.53,17.305c-2.189,2.186,1.2,5.581,3.394,3.394,8.874-8.861,20.625-13.835,33-15.278,11.213-1.308,23.649-.9,33.931,4.219a36.377,36.377,0,0,1,13.113,10.992,2.472,2.472,0,0,0,3.284.861,2.417,2.417,0,0,0,.861-3.283Z"/><path class="b" d="M130.523,51.578c-5.686,3.489-11.285,7.213-17.19,10.327-.436.23-.877.445-1.32.66-.095.044-.191.087-.287.128q.532-.221.2-.091c.007.013-.371.1-.39.121.376-.4,2.343.831,1.886.493.208.154.3.492.1.084-.235-.468-.5-.921-.723-1.4-.579-1.22-.9-2-1.391-3.273-.217-.563-.431-1.127-.624-1.7-.1-.293-.373-1.569-.228-.473a2.441,2.441,0,0,0-4.1-1.7C92.375,65.811,77.693,75.974,64.6,88.242c-2.259,2.117,1.14,5.506,3.394,3.394C81.086,79.369,95.77,69.205,109.851,58.157l-4.1-1.7a23.848,23.848,0,0,0,2.065,5.994c.689,1.619,1.524,4.4,3.462,4.917,1.74.464,3.758-.923,5.206-1.715,2.486-1.36,4.909-2.836,7.327-4.311,3.052-1.861,6.085-3.753,9.131-5.622,2.629-1.613.22-5.767-2.422-4.145Z"/><path class="b" d="M141.019,59.807a45.879,45.879,0,0,1,17.989,12.918,78,78,0,0,1,11.967,18.8,2.419,2.419,0,0,0,3.283.861,2.455,2.455,0,0,0,.861-3.284,81.908,81.908,0,0,0-13-20.091,54.709,54.709,0,0,0-9.22-8.364,48.85,48.85,0,0,0-10.607-5.47,2.417,2.417,0,0,0-2.952,1.676,2.456,2.456,0,0,0,1.676,2.952Z"/><path class="b" d="M40.334,321.477q.007,5.372.039,10.743a2.4,2.4,0,0,0,4.8,0q-.024-5.372-.039-10.743a2.4,2.4,0,0,0-4.8,0Z"/><path class="b" d="M157.618,188.953a230.063,230.063,0,0,1,38.438,15.168,91.8,91.8,0,0,1,14.357,9.055c4.282,3.313,8.209,6.915,10.36,11.965,2.34,5.5,3.366,11.62,4.11,17.512.7,5.582,1.116,11.2,1.571,16.805.954,11.754,1.871,23.512,2.643,35.28.819,12.486,1.231,25,1.846,37.5.152,3.074,4.953,3.093,4.8,0-.564-11.463-.939-22.943-1.648-34.4-.735-11.9-1.668-23.783-2.622-35.664-.448-5.588-.854-11.185-1.465-16.758a91.526,91.526,0,0,0-3.6-18.831,32.447,32.447,0,0,0-3.575-7.769,32.9,32.9,0,0,0-5.776-6.351,87.127,87.127,0,0,0-15.117-10.645,171.6,171.6,0,0,0-17.207-8.157q-10.215-4.294-20.76-7.748-2.531-.827-5.079-1.594c-2.964-.893-4.231,3.738-1.276,4.629Z"/><path class="b" d="M191.585,240.941q-.069,13.417-.179,26.834-.137,20.538-.225,41.076-.047,11.683-.054,23.368c0,3.089,4.8,3.094,4.8,0q.007-21.012.142-42.024.1-18.417.235-36.834.043-6.21.081-12.42c.016-3.089-4.784-3.093-4.8,0Z"/><path class="b" d="M69.428,193.013a77.276,77.276,0,0,0,17.166,7.994,101.14,101.14,0,0,0,21.887,4.851c13.386,1.431,27.135-.847,39.824-5.173,5.6-1.91,11.421-4.212,16.011-8.047a2.42,2.42,0,0,0,0-3.4,2.453,2.453,0,0,0-3.394,0c-.17.143-.341.285-.516.421.376-.291-.25.175-.263.184-.411.286-.823.569-1.247.837-1.025.648-2.087,1.236-3.168,1.786a63.2,63.2,0,0,1-7.335,3.109,107.506,107.506,0,0,1-18.164,4.719,84.857,84.857,0,0,1-39.773-3.077,74.958,74.958,0,0,1-18.606-8.354c-2.6-1.687-5.007,2.467-2.422,4.145Z"/><path class="d" d="M81.17,215.987c.462-4.053-.113-9.136.624-12.342.532-2.316,2.081-4.9,2.371-7.507a17.557,17.557,0,0,0-.5-6.83c-1.2-3.859-4.863-7.573-2.447-11.043,2.039-2.928,5.931-2.09,8.76.2,1.685,1.365,3.745,4.828,5.01,6.6a29,29,0,0,1,2.6,5.821l3.017-1.691c6.4-3.584,17.475-7.9,23.911-10.487,3-1.205,8.862-4.195,12.2-5.427a6.424,6.424,0,0,1,7.149,1.529,5.258,5.258,0,0,1,.278,5.289s-.5.8-.98,1.6c2.89-1.371,5.86-2.7,8.2-.2,2.012,2.144,2.111,5.668-.387,7.372-.59.309-2.976,1.445-6.124,2.924,2.293,1.307,2.43,3.153,1.975,5.187-.875,3.907-4.99,5.02-8.621,7.929,4.361-3.08,8.427,2.616,5.569,5.136-2.989,2.636-6.86,6.788-12.175,10.128a115.682,115.682,0,0,1-10.238,6.1c-3.2,1.6-6.625,2.938-9.6,4.938a7.374,7.374,0,0,0-2.472,2.553c-.677,1.054-2.288,4.014-3.416,5.988l-2.876,8.009-24.7-12.806Z"/><path class="b" d="M101.819,191.267a161.727,161.727,0,0,1,18.294-8.224c2.785-1.121,5.589-2.195,8.32-3.446,2.793-1.279,5.544-2.688,8.408-3.8,1.449-.564,3.116-.919,4.521-.025a2.376,2.376,0,0,1,.715,3.12c-1.49,2.707,2.653,5.132,4.145,2.422a7.224,7.224,0,0,0-3.635-10.254c-4.006-1.614-7.831.363-11.447,2.017-3.124,1.429-6.123,2.868-9.109,4.062-3.636,1.454-7.268,2.918-10.874,4.447a122.361,122.361,0,0,0-11.76,5.541c-2.7,1.5-.283,5.648,2.422,4.144Z"/><path class="b" d="M144.021,194.092c.479.33-.339-.344.054.036.094.09.191.176.281.271.035.036.069.073.1.111.12.138.07.071-.147-.2,0,.073.152.231.188.3a2.277,2.277,0,0,0,.156.3c-.277-.341-.148-.382-.063-.07.03.107.043.219.073.325.078.278-.031-.59-.028-.171,0,.231.013.459,0,.69-.016.251-.153.488.025-.069a3.143,3.143,0,0,0-.061.362c-.047.251-.1.5-.173.745-.035.121-.08.24-.117.361-.15.489.252-.473.014-.03-.114.212-.221.424-.351.627-.065.1-.136.2-.2.294-.161.242.348-.409.068-.093a10.039,10.039,0,0,1-1.088,1.065c-.067.056-.256.153-.291.235.267-.2.328-.253.184-.145-.061.046-.123.091-.185.136-.211.152-.426.3-.642.444-.5.332-1,.649-1.512.967a2.4,2.4,0,1,0,2.423,4.144,28.293,28.293,0,0,0,3.586-2.53,9.2,9.2,0,0,0,2.572-3.7,8.675,8.675,0,0,0,.42-4.543,6.328,6.328,0,0,0-2.861-4,2.414,2.414,0,0,0-3.284.861,2.462,2.462,0,0,0,.861,3.284Z"/><path class="b" d="M144.381,183.769c.346-.164.692-.327,1.041-.484.1-.046.2-.09.306-.136.3-.135-.143.049-.206.085a3.95,3.95,0,0,1,.549-.219,9.635,9.635,0,0,1,2.1-.562l-.638.085a5.483,5.483,0,0,1,1.274-.009l-.638-.086a5.985,5.985,0,0,1,.782.18c.395.11-.531-.266-.138-.065.109.056.216.11.321.172a2.558,2.558,0,0,0,.315.208q-.468-.37-.177-.131c.052.044.1.09.152.137.2.184.358.389.54.585-.545-.586-.073-.081.062.146.065.109.125.22.183.333.1.2.187.592-.042-.132a8.006,8.006,0,0,1,.348,1.33l-.086-.638a5.35,5.35,0,0,1-.008,1.344l.085-.638a4.706,4.706,0,0,1-.19.8c-.185.55.233-.447.05-.1-.056.107-.108.215-.17.319s-.13.205-.2.306c-.215.325.44-.506.041-.074a4.237,4.237,0,0,1-.31.3c-.45.4.378-.266.043-.031a2.573,2.573,0,0,0-1.1,1.434,2.4,2.4,0,0,0,3.525,2.711,6.914,6.914,0,0,0,2.825-3.839,7.347,7.347,0,0,0-.149-4.3,8.189,8.189,0,0,0-3.052-4.043,6.822,6.822,0,0,0-5.042-.917,17.928,17.928,0,0,0-4.821,1.784,2.416,2.416,0,0,0-1.1,1.435,2.4,2.4,0,0,0,3.525,2.71Z"/><path class="b" d="M140.307,206.449a1.731,1.731,0,0,1,1.947,1.036c-.07-.171.147.729.083.3.035.233.039.181,0,.279-.035.082-.067.1-.246.282-.281.286-.6.541-.9.813a97.317,97.317,0,0,1-8.368,7.3,99.877,99.877,0,0,1-10.849,6.793c-3.854,2.1-8.127,3.537-11.719,6.1-3.091,2.2-4.611,5.979-6.439,9.187-1.532,2.688,2.613,5.109,4.144,2.423.938-1.646,1.842-3.311,2.793-4.95a8.487,8.487,0,0,1,3.178-3.333c4.141-2.536,8.753-4.192,12.926-6.689a90.73,90.73,0,0,0,11.735-8c1.562-1.307,3.055-2.692,4.541-4.084,1.281-1.2,2.914-2.327,3.6-3.99,1.69-4.088-2.19-8.646-6.425-8.268a2.463,2.463,0,0,0-2.4,2.4,2.418,2.418,0,0,0,2.4,2.4Z"/><path class="b" d="M141.959,179.624c-4.237,1.843-8.491,3.645-12.729,5.485-3.78,1.641-7.717,3.151-11.329,5.148-2.7,1.5-.286,5.642,2.422,4.145,3.612-2,7.55-3.507,11.33-5.149,4.237-1.84,8.492-3.641,12.728-5.484a2.416,2.416,0,0,0,.861-3.284,2.461,2.461,0,0,0-3.283-.861Z"/><path class="b" d="M149.776,186.8c-7.406,3.839-15.132,7.166-22.726,10.61q-1.414.642-2.833,1.273-.528.234-1.059.463a1.639,1.639,0,0,1-.306.128,2.475,2.475,0,0,0-1.676,2.952,2.416,2.416,0,0,0,2.952,1.676c8.191-3.295,16.152-7.291,24.13-11.062,1.316-.623,2.647-1.225,3.94-1.9,2.744-1.423.319-5.566-2.422-4.145Z"/><path class="b" d="M140.3,200.58c-2.588,1.737-5.259,3.355-7.936,4.95a80.39,80.39,0,0,1-7.4,4.128,2.409,2.409,0,0,0-.861,3.283,2.466,2.466,0,0,0,3.283.861,80.032,80.032,0,0,0,7.4-4.127c2.676-1.595,5.348-3.214,7.936-4.951a2.4,2.4,0,1,0-2.423-4.144Z"/><path class="b" d="M100.9,192.987c-.841-2.263-1.613-4.549-2.583-6.762a32.9,32.9,0,0,0-3.284-5.369,17.137,17.137,0,0,0-5.02-5.3,9.2,9.2,0,0,0-7.172-1.29,6.857,6.857,0,0,0-4.749,5.653c-.342,2.656.944,5.08,2.1,7.377a14.456,14.456,0,0,1,1.679,7.5c-.124,2.809-1.582,5.174-2.3,7.837a33.259,33.259,0,0,0-.756,7.27c-.106,2.669-.125,5.351-.413,8.009a2.415,2.415,0,0,0,2.4,2.4,2.455,2.455,0,0,0,2.4-2.4c.441-4.08.268-8.2.683-12.283a26.186,26.186,0,0,1,1.728-5.595,17.863,17.863,0,0,0,.994-7.9,19.913,19.913,0,0,0-2.273-7.266c-.67-1.329-2.043-3.367-1.338-4.911.68-1.488,2.264-1.34,3.591-.793a9.216,9.216,0,0,1,3.877,3.5,36.085,36.085,0,0,1,3.427,5.355c.944,2.012,1.6,4.154,2.378,6.234a2.465,2.465,0,0,0,2.952,1.676,2.419,2.419,0,0,0,1.676-2.952Z"/><path class="c" d="M30.42,273.073c5.454-6.425,37.642-41.351,42.936-46.928l1.414-1.49c3.058,1.571,28.892,15.876,31.873,17.935l.579.4-.579,1.156c-6.518,13.037-21.926,34.593-35.555,51.778Z"/><path class="b" d="M32.117,274.77c5.169-6.08,10.657-11.9,16.041-17.793q10.459-11.437,20.993-22.808,3.639-3.927,7.316-7.817l-2.908.375c9.3,4.793,18.405,10.057,27.461,15.288,1.688.975,3.386,1.938,4.99,3.046l-.861-3.283A206.631,206.631,0,0,1,89.82,266.749q-9.909,14.3-20.782,27.92c-5.495,6.882-11.544,13.6-18.608,18.907-6.506,4.892-14.884,9.429-23.085,7.665-8.429-1.813-14.419-9.291-17.918-16.724a49.8,49.8,0,0,1-4.014-13.844A57.189,57.189,0,0,1,5.2,274.682c1.418-10.334,5.193-20.325,8.472-30.174,1.6-4.816,3.159-9.656,5.149-14.33s4.126-9.595,7.082-13.763c5.617-7.918,14.649-12.808,23.279-16.75a232.626,232.626,0,0,1,22.59-8.815c1.021-.344,2.062-.657,3.063-1.057a2.475,2.475,0,0,0,1.676-2.953,2.416,2.416,0,0,0-2.952-1.676c-2.842,1.137-5.827,1.978-8.727,2.956-3.8,1.282-7.5,2.876-11.2,4.42-9.673,4.035-19.584,8.519-27.182,15.941a45.837,45.837,0,0,0-8.944,13.138,132.394,132.394,0,0,0-6.036,14.39c-1.783,5.077-3.451,10.2-5.125,15.315-1.787,5.46-3.5,10.962-4.748,16.573a63.025,63.025,0,0,0,1.167,32.668c2.842,8.9,8.278,17.8,16.524,22.621,18,10.533,37.186-6.724,48.418-19.484,7.372-8.374,14.02-17.463,20.557-26.493a290.9,290.9,0,0,0,18.065-27.394c1.04-1.845,2.014-3.721,2.961-5.615a2.473,2.473,0,0,0-.861-3.283c-3.6-2.484-7.538-4.519-11.341-6.663q-8.033-4.528-16.116-8.967c-1.659-.91-3.312-1.837-5-2.7a2.462,2.462,0,0,0-2.908.375c-5.332,5.617-10.57,11.323-15.817,17.019Q46.543,251.6,35.912,263.305c-2.416,2.67-4.856,5.327-7.189,8.071a2.463,2.463,0,0,0,0,3.394,2.42,2.42,0,0,0,3.394,0Z"/><path class="b" d="M63.439,90.729c1.218,1.451,2.267,2.925,3.467,4.677,1.374,2.007,2.692,4.051,3.981,6.112q3.254,5.2,6.273,10.543c1.516,2.691,5.664.275,4.145-2.423q-3.087-5.481-6.44-10.808a101.558,101.558,0,0,0-8.032-11.5,2.42,2.42,0,0,0-3.394,0,2.452,2.452,0,0,0,0,3.394Z"/><path class="d" d="M117.674,107.407c-8.564,0-22.85,1.325-32.115,2.052-1.713.134-5.909.629-7.018,1.9-2.062,2.369-1.279,7.424-1.546,10.3a74.732,74.732,0,0,0,.4,13.778c.617,6.055.918,12.508,4.991,17.232,7.53,8.731,24.979,13.38,36.443,13.381a68.181,68.181,0,0,0,22.431-4.14c6.252-2.283,12.1-6.115,15.368-11.623,3.085-5.194,2.964-10.4,3.626-16.318a62.471,62.471,0,0,0,.238-12.534c-.282-2.864.435-7.544-1.652-9.941-1.109-1.273-4.568-1.866-6.28-2.016C141.7,108.526,127.189,107.407,117.674,107.407Z"/><path class="b" d="M170.989,89.071c-3.92,5.405-8.052,10.654-11.943,16.084-1.059,1.479-2.118,2.962-3.1,4.493-1.674,2.608,2.48,5.017,4.145,2.423,4.062-6.327,8.784-12.271,13.308-18.27.579-.768,1.171-1.529,1.736-2.308a2.417,2.417,0,0,0-.861-3.283,2.453,2.453,0,0,0-3.284.861Z"/><path class="d" d="M117.674,107.407c-8.564,0-22.85,1.325-32.115,2.052-1.713.134-5.909.629-7.018,1.9-2.062,2.369-1.279,7.424-1.546,10.3a74.732,74.732,0,0,0,.4,13.778c.617,6.055.918,12.508,4.991,17.232,7.53,8.731,24.979,13.38,36.443,13.381a68.181,68.181,0,0,0,22.431-4.14c6.252-2.283,12.1-6.115,15.368-11.623,3.085-5.194,2.964-10.4,3.626-16.318a62.471,62.471,0,0,0,.238-12.534c-.282-2.864.435-7.544-1.652-9.941-1.109-1.273-4.568-1.866-6.28-2.016C141.7,108.526,127.189,107.407,117.674,107.407Z"/><path class="b" d="M117.674,105.007c-8.3.015-16.6.788-24.87,1.464a104.491,104.491,0,0,0-11.149,1.1,9.2,9.2,0,0,0-4.675,1.952c-1.5,1.434-1.969,3.612-2.189,5.588-.207,1.848-.088,3.706-.142,5.56-.067,2.267-.269,4.5-.211,6.779a131.325,131.325,0,0,0,1.149,13.561c.6,4.642,1.729,9.163,4.718,12.882a29.157,29.157,0,0,0,8.423,6.785,63.845,63.845,0,0,0,49.079,4.886c8.565-2.519,17.482-7.026,21.616-15.4,2.117-4.29,2.553-8.949,2.979-13.645a83.471,83.471,0,0,0,.529-14.68c-.313-3.7.465-8.1-1.824-11.322-2.244-3.156-6.931-3.306-10.431-3.606-9.044-.776-18.106-1.49-27.18-1.8-1.94-.066-3.881-.107-5.822-.11-3.089,0-3.094,4.8,0,4.8,8.184.011,16.371.593,24.528,1.216,3.638.278,7.9.412,11.194.955a18.05,18.05,0,0,1,2.365.534,3.589,3.589,0,0,1,1.383.677c.829,1.088.811,2.861.846,4.162.106,4,.433,8,.237,12.01-.114,2.326-.393,4.633-.6,6.95-.185,2.016-.323,4.044-.687,6.038a19.43,19.43,0,0,1-5.309,10.474,29.1,29.1,0,0,1-9.882,6.343,61.078,61.078,0,0,1-25.169,4.425,61.9,61.9,0,0,1-20.508-4.648c-6.139-2.546-12.616-6.408-14.659-13.126-1.151-3.783-1.374-7.8-1.743-11.717a93.621,93.621,0,0,1-.226-13.133c.077-1.722-.041-3.447.088-5.168a7.9,7.9,0,0,1,.363-1.976,3.379,3.379,0,0,1,.379-.791c.117-.188-.147.052.162-.115,2.2-1.191,5.758-1.105,8.505-1.33,7.942-.648,15.888-1.36,23.853-1.672,1.627-.063,3.256-.105,4.885-.108C120.762,109.8,120.767,105,117.674,105.007Z"/><path class="b" d="M121.231,89.006c0,1.189.139,2.376.142,3.565a2.475,2.475,0,0,0,.7,1.7,2.4,2.4,0,0,0,3.394,0,2.487,2.487,0,0,0,.7-1.7c0-1.189-.139-2.376-.142-3.565a2.476,2.476,0,0,0-.7-1.7,2.4,2.4,0,0,0-3.395,0,2.494,2.494,0,0,0-.7,1.7Z"/><path class="b" d="M112.91,88.93c0,1.181.048,2.361.048,3.542a2.48,2.48,0,0,0,.7,1.7,2.4,2.4,0,0,0,3.395,0,2.493,2.493,0,0,0,.7-1.7c0-1.181-.047-2.361-.048-3.542a2.48,2.48,0,0,0-.7-1.7,2.4,2.4,0,0,0-3.394,0,2.489,2.489,0,0,0-.7,1.7Z"/><path class="b" d="M101.7,93.641c-3.525.244-7.023.8-10.543,1.094a2.4,2.4,0,0,0,0,4.8c3.52-.3,7.018-.85,10.543-1.094a2.4,2.4,0,1,0,0-4.8Z"/><path class="b" d="M136.766,98.441c3.524.244,7.022.8,10.542,1.094a2.409,2.409,0,0,0,2.4-2.4,2.461,2.461,0,0,0-2.4-2.4c-3.52-.3-7.018-.85-10.542-1.094a2.414,2.414,0,0,0-2.4,2.4,2.457,2.457,0,0,0,2.4,2.4Z"/></svg>