<?xml version="1.0" encoding="iso-8859-1"?>
<!-- Uploaded to: SVG Repo, www.svgrepo.com, Generator: SVG Repo Mixer Tools -->
<svg height="800px" width="800px" version="1.1" id="Layer_1" xmlns="http://www.w3.org/2000/svg" xmlns:xlink="http://www.w3.org/1999/xlink" 
	 viewBox="0 0 512.001 512.001" xml:space="preserve">
<path style="fill:#DBE9FD;" d="M511.143,451.067L444.36,250.718c-2.272-6.815-8.652-11.413-15.838-11.413H83.478
	c-7.185,0-13.566,4.598-15.838,11.413L0.857,451.067c-1.695,5.098-0.848,10.695,2.294,15.044c3.141,4.359,8.174,6.934,13.544,6.934
	h478.611c5.369,0,10.403-2.576,13.544-6.934C511.991,461.762,512.839,456.164,511.143,451.067z"/>
<path style="fill:#C5DCFD;" d="M444.36,250.718c-2.272-6.815-8.652-11.413-15.838-11.413H256v233.74h239.305
	c5.369,0,10.403-2.576,13.544-6.934c3.141-4.348,3.989-9.946,2.294-15.044L444.36,250.718z"/>
<polygon style="fill:#6BBAE2;" points="39.861,439.653 95.513,272.696 416.489,272.696 472.142,439.653 "/>
<polygon style="fill:#60AED5;" points="256.001,272.696 256.001,439.653 472.142,439.653 416.489,272.696 "/>
<path style="fill:#FF6243;" d="M256.001,38.956c-64.445,0-116.87,52.425-116.87,116.87c0,22.555,6.446,44.446,18.62,63.305
	l85.022,131.729c3.076,4.761,8.642,7.174,14.315,7.174c0.022,0,0.055,0,0.087,0c5.695-0.022,11.272-3.413,14.326-8.229
	l83.283-131.511c11.837-18.664,18.087-40.261,18.087-62.468C372.871,91.379,320.447,38.956,256.001,38.956z M256.001,205.913
	c-27.619,0-50.087-22.468-50.087-50.087s22.468-50.087,50.087-50.087c27.619,0,50.087,22.468,50.087,50.087
	S283.62,205.913,256.001,205.913z"/>
<path style="fill:#FF3501;" d="M256.001,38.956v66.783c27.619,0,50.087,22.468,50.087,50.087s-22.468,50.087-50.087,50.087v152.003
	c0.365,0.02,0.719,0.117,1.087,0.117c0.022,0,0.055,0,0.087,0c5.695-0.022,11.272-3.413,14.326-8.229l83.283-131.511
	c11.837-18.664,18.087-40.261,18.087-62.468C372.871,91.379,320.447,38.956,256.001,38.956z"/>
</svg>