<!DOCTYPE svg PUBLIC "-//W3C//DTD SVG 1.1//EN" "http://www.w3.org/Graphics/SVG/1.1/DTD/svg11.dtd">
<!-- Uploaded to: SVG Repo, www.svgrepo.com, Transformed by: SVG Repo Mixer Tools -->
<svg version="1.1" id="Layer_1" xmlns="http://www.w3.org/2000/svg" xmlns:xlink="http://www.w3.org/1999/xlink" viewBox="0 0 297 297" xml:space="preserve" width="800px" height="800px" fill="#000000">
<g id="SVGRepo_bgCarrier" stroke-width="0"/>
<g id="SVGRepo_tracerCarrier" stroke-linecap="round" stroke-linejoin="round"/>
<g id="SVGRepo_iconCarrier"> <g> <g id="XMLID_17_"> <g> <rect x="138.57" y="20.92" style="fill:#ff0000;" width="19.87" height="99.87"/> <path style="fill:#ff0000;" d="M228.51,49.12c29.94,24.15,47.58,60.68,47.58,99.38c0,70.35-57.24,127.58-127.59,127.58 S20.92,218.85,20.92,148.5c0-38.7,17.63-75.23,47.58-99.38l15.82,15.83c-25.68,19.8-41.18,50.74-41.18,83.55 c0,58.1,47.27,105.36,105.36,105.36c58.1,0,105.36-47.26,105.36-105.36c0-32.81-15.5-63.75-41.18-83.55L228.51,49.12z"/> <path d="M233.53,26.74C273.27,54.55,297,100.06,297,148.5c0,81.88-66.61,148.5-148.5,148.5C66.62,297,0,230.38,0,148.5 c0-48.44,23.73-93.95,63.48-121.76c4.16-2.9,9.8-2.41,13.39,1.18l31.2,31.2c2.29,2.29,3.39,5.52,2.98,8.73 c-0.42,3.22-2.3,6.06-5.1,7.69c-25.84,15.11-41.89,43.07-41.89,72.96c0,46.56,37.88,84.45,84.44,84.45 c46.57,0,84.45-37.89,84.45-84.45c0-29.89-16.05-57.85-41.9-72.96c-2.8-1.63-4.68-4.47-5.09-7.69c-0.42-3.21,0.68-6.44,2.97-8.73 l31.21-31.2C223.72,24.33,229.37,23.84,233.53,26.74z M276.09,148.5c0-38.7-17.64-75.23-47.58-99.38l-15.83,15.83 c25.68,19.8,41.18,50.74,41.18,83.55c0,58.1-47.26,105.36-105.36,105.36c-58.09,0-105.36-47.26-105.36-105.36 c0-32.81,15.5-63.75,41.18-83.55L68.5,49.12C38.55,73.27,20.92,109.8,20.92,148.5c0,70.35,57.23,127.58,127.58,127.58 S276.09,218.85,276.09,148.5z"/> <path d="M179.35,10.46v120.78c0,5.78-4.68,10.46-10.45,10.46h-40.79c-5.77,0-10.46-4.68-10.46-10.46V10.46 c0-5.78,4.69-10.46,10.46-10.46h40.79C174.67,0,179.35,4.68,179.35,10.46z M158.44,120.79V20.92h-19.87v99.87H158.44z"/> </g> </g> </g> </g>
</svg>