<?xml version="1.0" encoding="utf-8"?>
<!-- Uploaded to: SVG Repo, www.svgrepo.com, Generator: SVG Repo Mixer Tools -->
<svg version="1.1" id="Uploaded to svgrepo.com" xmlns="http://www.w3.org/2000/svg" xmlns:xlink="http://www.w3.org/1999/xlink" 
	 width="800px" height="800px" viewBox="0 0 32 32" xml:space="preserve">
<style type="text/css">
	.avocado_acht{fill:#A3AEB5;}
	.avocado_een{fill:#231F20;}
	.avocado_zeven{fill:#788287;}
	.st0{fill:#FFFAEE;}
	.st1{fill:#AF9480;}
	.st2{fill:#DBD2C1;}
	.st3{fill:#CC4121;}
	.st4{fill:#EAD13F;}
	.st5{fill:#C3CC6A;}
	.st6{fill:#D1712A;}
	.st7{fill:#E0A838;}
	.st8{fill:#716558;}
	.st9{fill:#6F9B45;}
	.st10{fill:#0E608E;}
	.st11{fill:#E598A3;}
	.st12{fill:#3D3935;}
	.st13{fill:#248EBC;}
	.st14{fill:#BF63C1;}
</style>
<g>
	<g>
		<polygon class="avocado_acht" points="7.46,30.5 5.46,6.5 4.5,6.5 4.5,3.5 27.5,3.5 27.5,6.5 26.54,6.5 24.54,30.5 		"/>
	</g>
	<path class="avocado_zeven" d="M5.46,6.5h21.08L26.415,8H5.585L5.46,6.5z M11,27h1V11h-1V27z M20,27h1V11h-1V27z M17,27h1V11
		h-1V27z M14,27h1V11h-1V27z"/>
	<path class="avocado_een" d="M19,3V1h-6v2H4v4h1l2,24h18l2-24h1V3H19z M14,2h4v1h-4V2z M24.08,30H7.92L6.003,7h19.993
		L24.08,30z M27,6H5V4h22V6z"/>
</g>
</svg>