<?xml version="1.0" encoding="iso-8859-1"?>
<!-- Uploaded to: SVG Repo, www.svgrepo.com, Generator: SVG Repo Mixer Tools -->
<svg version="1.1" id="Layer_1" xmlns="http://www.w3.org/2000/svg" xmlns:xlink="http://www.w3.org/1999/xlink" 
	 viewBox="0 0 512 512" xml:space="preserve">
<path style="fill:#FFC1A6;" d="M257.923,0.011v350.84c95.531-0.911,179.12-70.251,229.174-175.42
	C437.043,70.251,353.454,0.922,257.923,0.011z"/>
<path style="fill:#FFDBCC;" d="M257.923,0.011c81.463,1.08,152.737,70.364,195.437,175.42
	c-42.699,105.045-113.974,174.34-195.437,175.42c-0.641,0.011-1.282,0.011-1.923,0.011c-96.33,0-180.705-69.554-231.097-175.431
	C75.295,69.543,159.67,0,256,0C256.641,0,257.282,0,257.923,0.011z"/>
<path style="fill:#FFFFFF;" d="M256,53.656c-96.331,0-180.702,48.274-231.097,121.771C75.298,248.922,159.669,297.197,256,297.197
	c96.33,0,180.702-48.276,231.097-121.771C436.702,101.932,352.33,53.656,256,53.656z"/>
<path style="fill:#42C8C6;" d="M256,53.417v244.029c67.383,0,122.015-54.631,122.015-122.015
	C378.015,108.036,323.384,53.417,256,53.417z"/>
<path style="fill:#81E3E2;" d="M256,53.417c48.75,0,88.278,54.62,88.278,122.015c0,67.384-39.528,122.015-88.278,122.015
	c-67.384,0-122.015-54.631-122.015-122.015C133.985,108.036,188.617,53.417,256,53.417z"/>
<path style="fill:#272727;" d="M256,117.516v115.829c31.982,0,57.915-25.932,57.915-57.915
	C313.915,143.437,287.982,117.516,256,117.516z"/>
<path style="fill:#4D4D4D;" d="M256,117.516c13.348,0,24.178,25.921,24.178,57.915c0,31.982-10.829,57.915-24.178,57.915
	c-31.982,0-57.915-25.932-57.915-57.915C198.085,143.437,224.018,117.516,256,117.516z"/>
<polygon style="fill:#272727;" points="74.586,452.961 52.095,481.659 0.163,452.961 "/>
<polygon style="fill:#4D4D4D;" points="52.095,424.262 74.586,444.763 52.095,465.263 0.163,452.961 "/>
<polygon style="fill:#FEA680;" points="129.487,465.263 106.996,512 52.095,481.659 52.095,465.263 "/>
<polygon style="fill:#FFC1A6;" points="106.996,478.263 52.095,465.263 52.095,424.262 106.996,393.921 129.487,436.092 "/>
<path style="fill:#FE5F1A;" d="M396.57,478.263L419.061,512h33.737c32.601,0,59.039-26.438,59.039-59.039L396.57,478.263z"/>
<path style="fill:#FE834D;" d="M452.798,393.921c32.612,0,59.039,26.427,59.039,59.039c0,13.978-26.438,25.303-59.039,25.303H396.57
	l22.491-84.027v-0.315H452.798z"/>
<polygon style="fill:#DFC136;" points="407.815,455.772 385.324,512 106.996,512 106.996,478.263 "/>
<polygon style="fill:#FEDC3D;" points="407.815,430.47 385.324,478.263 106.996,478.263 106.996,452.961 "/>
<polygon style="fill:#FFE777;" points="385.324,394.236 407.815,452.961 106.996,452.961 106.996,393.921 385.324,393.921 "/>
<polygon style="fill:#B9B9B9;" points="385.324,478.263 385.324,512 419.061,512 419.061,478.263 402.193,455.772 "/>
<rect x="385.319" y="393.921" style="fill:#DCDCDC;" width="33.737" height="84.342"/>
</svg>